{"title":"Pathala Bhairavi (1951) DvdRip","uid":6315790,"size":939049080,"categoryP":"video","categoryS":"movies","magnet":"?xt=urn:btih:d4f18f5b58718f5ce271781f76bcc68b275dce93&amp;dn=Pathala+Bhairavi+%281951%29+DvdRip&amp;tr=udp%3A%2F%2Ftracker.openbittorrent.com%3A80&amp;tr=udp%3A%2F%2Fopen.demonii.com%3A1337&amp;tr=udp%3A%2F%2Ftracker.coppersurfer.tk%3A6969&amp;tr=udp%3A%2F%2Fexodus.desync.com%3A6969","seeders":0,"leechers":2,"uploader":"n1212","files":2,"time":1302702660,"description":"Pathala Bhairavi (1951) DvdRip\n\n\n\nDescription\n\nGeneral\nComplete name : Pathala Bhairavi (1951)DvdRip\nFormat : AVI\nFile size : 896 MiB\nDuration : 3h 10mn\nOverall bit rate : 659 Kbps\n\nVideo\nFormat : MPEG-4 Visual\nFormat settings, Matrix : Default (H.263)\nCodec ID : XVID\nBit rate : 600 Kbps\nWidth : 672 pixels\nHeight : 416 pixels\nDisplay aspect ratio : 1.615\nFrame rate : 23.976 fps\nBit depth : 8 bits\nCompression mode : Lossy\nBits/(Pixel*Frame) : 0.089\nStream size : 815 MiB (91%)\nWriting library : XviD 1.2.1 (UTC 2008-12-04)\n\nAudio\nFormat : MPEG Audio\nFormat version : Version 2\nMode : Joint stereo\nMode extension : MS Stereo\nCodec ID/Hint : MP3\nDuration : 3h 10mn\nBit rate mode : Constant\nBit rate : 56.0 Kbps\nChannel(s) : 2 channels\nSampling rate : 24.0 KHz\nCompression mode : Lossy\nStream size : 76.1 MiB (8%)\n\n\n\nfor screenshots see here\n &lt;a href=&quot;\nhttp://teluguppls.blogspot.com/2011/04/pathala-bhairavi-1951-telugu-movie.html&quot; rel=&quot;nofollow&quot; target=&quot;_NEW&quot;&gt;\nhttp://teluguppls.blogspot.com/2011/04/pathala-bhairavi-1951-telugu-movie.html&lt;/a&gt;","torrent":{"xt":"urn:btih:d4f18f5b58718f5ce271781f76bcc68b275dce93","amp;dn":"Pathala+Bhairavi+%281951%29+DvdRip","amp;tr":["udp%3A%2F%2Ftracker.openbittorrent.com%3A80","udp%3A%2F%2Fopen.demonii.com%3A1337","udp%3A%2F%2Ftracker.coppersurfer.tk%3A6969","udp%3A%2F%2Fexodus.desync.com%3A6969"],"infoHash":"d4f18f5b58718f5ce271781f76bcc68b275dce93","infoHashBuffer":{"type":"Buffer","data":[212,241,143,91,88,113,143,92,226,113,120,31,118,188,198,139,39,93,206,147]},"announce":[],"urlList":[]}}